<svg width="1430" height="813" viewBox="0 0 1430 813" fill="none" xmlns="http://www.w3.org/2000/svg">
<g opacity="0.3" clip-path="url(#clip0_10_249)">
<rect x="1" width="1428" height="1" fill="#FDEEE3"/>
<rect x="1" y="51" width="1428" height="1" fill="#FDEEE3"/>
<rect x="1" y="102" width="1428" height="1" fill="#FDEEE3"/>
<rect x="1" y="153" width="1428" height="1" fill="#FDEEE3"/>
<rect x="1" y="204" width="1428" height="1" fill="#FDEEE3"/>
<rect x="1" y="255" width="1428" height="1" fill="#FDEEE3"/>
<rect x="1" y="306" width="1428" height="1" fill="#FDEEE3"/>
<rect x="1" y="357" width="1428" height="1" fill="#FDEEE3"/>
<rect x="1" y="408" width="1428" height="1" fill="#FDEEE3"/>
<rect x="1" y="459" width="1428" height="1" fill="#FDEEE3"/>
<rect x="1" y="510" width="1428" height="1" fill="#FDEEE3"/>
<rect x="1" y="561" width="1428" height="1" fill="#FDEEE3"/>
<rect x="1" y="612" width="1428" height="1" fill="#FDEEE3"/>
<rect x="1" y="663" width="1428" height="1" fill="#FDEEE3"/>
<rect x="1" y="714" width="1428" height="1" fill="#FDEEE3"/>
<rect x="1" y="765" width="1428" height="1" fill="#FDEEE3"/>
</g>
<g opacity="0.2">
<rect width="1" height="813" fill="#FDEEE3"/>
<rect x="51.0356" width="1" height="813" fill="#FDEEE3"/>
<rect x="102.071" width="1" height="813" fill="#FDEEE3"/>
<rect x="153.106" width="1" height="813" fill="#FDEEE3"/>
<rect x="204.142" width="1" height="813" fill="#FDEEE3"/>
<rect x="255.177" width="1" height="813" fill="#FDEEE3"/>
<rect x="306.212" width="1" height="813" fill="#FDEEE3"/>
<rect x="357.248" width="1" height="813" fill="#FDEEE3"/>
<rect x="408.283" width="1" height="813" fill="#FDEEE3"/>
<rect x="459.319" width="1" height="813" fill="#FDEEE3"/>
<rect x="510.354" width="1" height="813" fill="#FDEEE3"/>
<rect x="561.39" width="1" height="813" fill="#FDEEE3"/>
<rect x="612.425" width="1" height="813" fill="#FDEEE3"/>
<rect x="663.46" width="1" height="813" fill="#FDEEE3"/>
<rect x="714.496" width="1" height="813" fill="#FDEEE3"/>
<rect x="765.531" width="1" height="813" fill="#FDEEE3"/>
<rect x="816.566" width="1" height="813" fill="#FDEEE3"/>
<rect x="867.602" width="1" height="813" fill="#FDEEE3"/>
<rect x="918.638" width="1" height="813" fill="#FDEEE3"/>
<rect x="969.673" width="1" height="813" fill="#FDEEE3"/>
<rect x="1020.71" width="1" height="813" fill="#FDEEE3"/>
<rect x="1071.74" width="1" height="813" fill="#FDEEE3"/>
<rect x="1122.78" width="1" height="813" fill="#FDEEE3"/>
<rect x="1173.81" width="1" height="813" fill="#FDEEE3"/>
<rect x="1224.85" width="1" height="813" fill="#FDEEE3"/>
<rect x="1275.89" width="1" height="813" fill="#FDEEE3"/>
<rect x="1326.92" width="1" height="813" fill="#FDEEE3"/>
<rect x="1377.96" width="1" height="813" fill="#FDEEE3"/>
</g>
<defs>
<clipPath id="clip0_10_249">
<rect width="1428" height="813" fill="white" transform="translate(1)"/>
</clipPath>
</defs>
</svg>
